<?xml version="1.0" encoding="UTF-8"?>
<svg id="Layer_1" data-name="Layer 1" xmlns="http://www.w3.org/2000/svg" viewBox="0 0 416 228.32">
  <defs>
    <style>
      .cls-1 {
        font-size: 50px;
        letter-spacing: -.05em;
      }

      .cls-1, .cls-2, .cls-3, .cls-4, .cls-5 {
        stroke-miterlimit: 10;
      }

      .cls-1, .cls-3, .cls-4, .cls-5 {
        fill: #231f20;
        stroke: #231f20;
      }

      .cls-1, .cls-4, .cls-5 {
        font-family: CenturyGothic, 'Century Gothic';
      }

      .cls-2 {
        fill: #fff;
        stroke: #fff;
      }

      .cls-6 {
        fill: #d7df23;
      }

      .cls-4, .cls-5 {
        font-size: 100px;
        stroke-width: 2px;
      }

      .cls-5 {
        letter-spacing: .05em;
      }
    </style>
  </defs>
  <text class="cls-5" transform="translate(71.63 141.78)"><tspan x="0" y="0">O</tspan></text>
  <text class="cls-4" transform="translate(160.41 141.78)"><tspan x="0" y="0">M</tspan></text>
  <g>
    <path class="cls-6" d="M111.93,103.47c-5.87,8.94-15.1,13.25-20.6,9.63-5.51-3.62-5.21-13.8.66-22.74,5.87-8.94,15.1-13.25,20.61-9.63,5.51,3.62,5.21,13.8-.66,22.73Z"/>
    <path class="cls-3" d="M104.61,98.66c-2.35,3.57-6.04,5.3-8.24,3.85-2.2-1.45-2.09-5.52.26-9.09,2.35-3.57,6.04-5.3,8.24-3.85,2.2,1.45,2.08,5.52-.26,9.09Z"/>
    <path class="cls-2" d="M97.12,105.71c1.78-2.71,5.31-3.54,7.88-1.85,2.57,1.69,3.21,5.26,1.43,7.97-1.78,2.71-5.31,3.54-7.88,1.85-2.57-1.69-3.21-5.26-1.43-7.97Z"/>
  </g>
  <text class="cls-1" transform="translate(260.42 141.78)"><tspan x="0" y="0">lab</tspan></text>
</svg>