<?xml version="1.0" encoding="UTF-8"?>
<svg id="visiomlab" data-name="ViSiOMlab" xmlns="http://www.w3.org/2000/svg" viewBox="0 0 581 228.32">
  <defs>
    <style>
      .cls-2 { fill: #fff; stroke: #fff; stroke-miterlimit: 10; }
      .cls-3 { fill: #231f20; stroke: #231f20; stroke-miterlimit: 10; }
      .cls-6 { fill: #d7df23; }
    </style>
  </defs>
  <!-- ViSi prefix (outlined Century Gothic) -->
  <g transform="translate(71.63 141.78) scale(0.048828 -0.048828)"><path d="M67.0 1471H227.0L714.0 334L1210.0 1471H1370.0L730.0 0H698.0ZM1643.0 1536Q1691.0 1536 1725.0 1502.0Q1759.0 1468 1759.0 1420Q1759.0 1373 1725.0 1339.0Q1691.0 1305 1643.0 1305Q1596.0 1305 1562.0 1339.0Q1528.0 1373 1528.0 1420Q1528.0 1468 1562.0 1502.0Q1596.0 1536 1643.0 1536ZM1573.0 1088H1714.0V0H1573.0ZM1875.0 274 2000.0 349Q2132.0 106 2305.0 106Q2379.0 106 2444.0 140.5Q2509.0 175 2543.0 233.0Q2577.0 291 2577.0 356Q2577.0 430 2527.0 501Q2458.0 599 2275.0 737Q2091.0 876 2046.0 938Q1968.0 1042 1968.0 1163Q1968.0 1259 2014.0 1338.0Q2060.0 1417 2143.5 1462.5Q2227.0 1508 2325.0 1508Q2429.0 1508 2519.5 1456.5Q2610.0 1405 2711.0 1267L2591.0 1176Q2508.0 1286 2449.5 1321.0Q2391.0 1356 2322.0 1356Q2233.0 1356 2176.5 1302.0Q2120.0 1248 2120.0 1169Q2120.0 1121 2140.0 1076.0Q2160.0 1031 2213.0 978Q2242.0 950 2403.0 831Q2594.0 690 2665.0 580.0Q2736.0 470 2736.0 359Q2736.0 199 2614.5 81.0Q2493.0 -37 2319.0 -37Q2185.0 -37 2076.0 34.5Q1967.0 106 1875.0 274ZM3073.0 1536Q3121.0 1536 3155.0 1502.0Q3189.0 1468 3189.0 1420Q3189.0 1373 3155.0 1339.0Q3121.0 1305 3073.0 1305Q3026.0 1305 2992.0 1339.0Q2958.0 1373 2958.0 1420Q2958.0 1468 2992.0 1502.0Q3026.0 1536 3073.0 1536ZM3003.0 1088H3144.0V0H3003.0Z" fill="#231f20" stroke="#231f20" stroke-width="40.960" stroke-miterlimit="10"/></g>
  <!-- OMlab wordmark + eye-in-O, shifted right to make room for ViSi -->
  <g transform="translate(165 0)">
  <g transform="translate(71.63 141.78) scale(0.048828 -0.048828)"><path d="M880.0 1508Q1214.0 1508 1439.0 1285.0Q1664.0 1062 1664.0 736Q1664.0 413 1439.5 188.0Q1215.0 -37 892.0 -37Q565.0 -37 340.0 187.0Q115.0 411 115.0 729Q115.0 941 217.5 1122.0Q320.0 1303 497.0 1405.5Q674.0 1508 880.0 1508ZM887.0 1364Q724.0 1364 578.0 1279.0Q432.0 1194 350.0 1050.0Q268.0 906 268.0 729Q268.0 467 449.5 286.5Q631.0 106 887.0 106Q1058.0 106 1203.5 189.0Q1349.0 272 1430.5 416.0Q1512.0 560 1512.0 736Q1512.0 911 1430.5 1052.5Q1349.0 1194 1201.0 1279.0Q1053.0 1364 887.0 1364Z" fill="#231f20" stroke="#231f20" stroke-width="40.960" stroke-miterlimit="10"/></g>
  <g transform="translate(160.41 141.78) scale(0.048828 -0.048828)"><path d="M112.0 0 321.0 1471H345.0L943.0 264L1535.0 1471H1559.0L1770.0 0H1625.0L1481.0 1052L961.0 0H924.0L397.0 1060L254.0 0Z" fill="#231f20" stroke="#231f20" stroke-width="40.960" stroke-miterlimit="10"/></g>
    <g>
      <path class="cls-6" d="M111.93,103.47c-5.87,8.94-15.1,13.25-20.6,9.63-5.51-3.62-5.21-13.8.66-22.74,5.87-8.94,15.1-13.25,20.61-9.63,5.51,3.62,5.21,13.8-.66,22.73Z"/>
      <path class="cls-3" d="M104.61,98.66c-2.35,3.57-6.04,5.3-8.24,3.85-2.2-1.45-2.09-5.52.26-9.09,2.35-3.57,6.04-5.3,8.24-3.85,2.2,1.45,2.08,5.52-.26,9.09Z"/>
      <path class="cls-2" d="M97.12,105.71c1.78-2.71,5.31-3.54,7.88-1.85,2.57,1.69,3.21,5.26,1.43,7.97-1.78,2.71-5.31,3.54-7.88,1.85-2.57-1.69-3.21-5.26-1.43-7.97Z"/>
    </g>
  <g transform="translate(260.42 141.78) scale(0.024414 -0.024414)"><path d="M135.0 1508H275.0V0H135.0ZM1547.6 1088V0H1409.6V187Q1321.6 80 1212.1 26.0Q1102.6 -28 972.6 -28Q741.6 -28 578.1 139.5Q414.6 307 414.6 547Q414.6 782 579.6 949.0Q744.6 1116 976.6 1116Q1110.6 1116 1219.1 1059.0Q1327.6 1002 1409.6 888V1088ZM987.6 981Q870.6 981 771.6 923.5Q672.6 866 614.1 762.0Q555.6 658 555.6 542Q555.6 427 614.6 322.0Q673.6 217 773.1 158.5Q872.6 100 986.6 100Q1101.6 100 1204.6 158.0Q1307.6 216 1363.1 315.0Q1418.6 414 1418.6 538Q1418.6 727 1294.1 854.0Q1169.6 981 987.6 981ZM1769.1999999999998 0V1508H1908.1999999999998V901Q1996.1999999999998 1009 2105.2 1062.5Q2214.2 1116 2344.2 1116Q2575.2 1116 2738.7 948.5Q2902.2 781 2902.2 542Q2902.2 306 2737.2 139.0Q2572.2 -28 2340.2 -28Q2207.2 -28 2099.2 29.0Q1991.1999999999998 86 1908.1999999999998 200V0ZM2329.2 107Q2446.2 107 2545.2 164.5Q2644.2 222 2702.7 326.0Q2761.2 430 2761.2 546Q2761.2 662 2702.2 767.0Q2643.2 872 2543.7 930.5Q2444.2 989 2331.2 989Q2216.2 989 2112.7 930.5Q2009.1999999999998 872 1953.6999999999998 773.0Q1898.1999999999998 674 1898.1999999999998 550Q1898.1999999999998 361 2022.6999999999998 234.0Q2147.2 107 2329.2 107Z" fill="#231f20" stroke="#231f20" stroke-width="40.960" stroke-miterlimit="10"/></g>
  </g>
</svg>
